<svg xmlns="http://www.w3.org/2000/svg" width="512" height="512" viewBox="0 0 511.999 511.999"  fill="#00b3e2" xmlns:v="https://vecta.io/nano"><path d="M329.308 50.75H182.686V23.537A23.54 23.54 0 0 1 206.222.001h99.55a23.54 23.54 0 0 1 23.536 23.536z"/><path d="m329.306 23.539v27.21h-24.37v-27.21c0-13-10.539-23.539-23.539-23.539h24.37c13 0 23.539 10.539 23.539 23.539z"/><path d="M422.678 87.128H89.316V61.976c0-8.749 7.092-15.841 15.841-15.841h301.682c8.749 0 15.841 7.092 15.841 15.841v25.152z"/><path d="M422.673 61.975v25.159h-27.346V61.975a15.84 15.84 0 0 0-15.84-15.84h27.346a15.84 15.84 0 0 1 15.84 15.84zm-166.676 83.897H74.523l34.513 326.562c2.377 22.493 21.347 39.564 43.965 39.564h205.992c22.618 0 41.588-17.071 43.965-39.564l34.513-326.562z"/><path d="m437.472 145.873-34.509 326.558c-2.377 22.498-21.351 39.568-43.975 39.568h-29.997c22.624 0 41.587-17.07 43.965-39.568l34.52-326.558z"/><path d="M445.851 148.251H66.142c-5.006 0-9.065-4.058-9.065-9.065V93.814c0-5.006 4.058-9.065 9.065-9.065h379.709c5.006 0 9.065 4.058 9.065 9.065v45.372c0 5.006-4.058 9.065-9.065 9.065z"/><path d="M454.921 93.811v45.374a9.07 9.07 0 0 1-9.066 9.067H419.75a9.07 9.07 0 0 0 9.066-9.067V93.811a9.06 9.06 0 0 0-9.066-9.056h26.105a9.06 9.06 0 0 1 9.066 9.056zM182.678 472.456a7.5 7.5 0 0 1-7.469-6.917l-21.25-272.041a7.5 7.5 0 0 1 6.893-8.061c4.133-.317 7.738 2.764 8.061 6.893l21.25 272.041a7.5 7.5 0 0 1-6.893 8.061 7.36 7.36 0 0 1-.592.024zm146.638 0a7.89 7.89 0 0 1-.592-.023c-4.13-.322-7.216-3.932-6.894-8.061l21.25-272.041a7.48 7.48 0 0 1 8.062-6.893c4.13.322 7.216 3.932 6.894 8.061l-21.25 272.041c-.308 3.93-3.593 6.916-7.47 6.916zm-73.319-.001a7.5 7.5 0 0 1-7.5-7.5V192.914a7.5 7.5 0 1 1 15 0v272.041a7.5 7.5 0 0 1-7.5 7.5z"/></svg>