<svg xmlns="http://www.w3.org/2000/svg" width="512" height="512" viewBox="0 0 412.735 412.735"  xmlns:v="https://vecta.io/nano"><path d="M295.706 35.522c-34.43-.184-67.161 14.937-89.339 41.273-22.039-26.516-54.861-41.68-89.339-41.273C52.395 35.522 0 87.917 0 152.55c0 110.76 193.306 218.906 201.143 223.086 3.162 2.113 7.286 2.113 10.449 0 7.837-4.18 201.143-110.759 201.143-223.086 0-64.633-52.396-117.028-117.029-117.028zm-89.339 319.216C176.065 336.975 20.898 242.412 20.898 152.55c0-53.091 43.039-96.131 96.131-96.131 32.512-.427 62.938 15.972 80.457 43.363 3.557 4.905 10.418 5.998 15.323 2.44.937-.68 1.761-1.503 2.44-2.44 29.055-44.435 88.631-56.903 133.066-27.848a96.13 96.13 0 0 1 43.521 80.615c.001 90.907-155.167 184.948-185.469 202.189z" fill="#f30000"/></svg>